<svg width="46" height="24" viewBox="0 0 46 24" fill="none" xmlns="http://www.w3.org/2000/svg">
<path fill-rule="evenodd" clip-rule="evenodd" d="M43.5521 3.47619C34.9185 19.5302 17.6721 26.057 1.65383 17.019C1.12058 16.718 0.444355 16.9062 0.143402 17.4329C-0.157551 17.9689 0.0305644 18.6461 0.563816 18.947C17.7332 28.6433 36.2502 21.7309 45.5045 4.52952C45.7942 3.99344 45.592 3.31621 45.0531 3.02466C44.5142 2.74252 43.8418 2.94011 43.5521 3.47619Z" fill="black"/>
<path d="M15.1334 10.1337C16.9169 10.1337 18.3626 8.68797 18.3626 6.90455C18.3626 5.12114 16.9169 3.67542 15.1334 3.67542C13.35 3.67542 11.9043 5.12114 11.9043 6.90455C11.9043 8.68797 13.35 10.1337 15.1334 10.1337Z" fill="black"/>
<path d="M28.502 6.69875C30.2505 6.69875 31.668 5.28128 31.668 3.53272C31.668 1.78416 30.2505 0.366699 28.502 0.366699C26.7534 0.366699 25.3359 1.78416 25.3359 3.53272C25.3359 5.28128 26.7534 6.69875 28.502 6.69875Z" fill="black"/>
</svg>
